<svg id="Layer_1" data-name="Layer 1" xmlns="http://www.w3.org/2000/svg" xmlns:xlink="http://www.w3.org/1999/xlink" viewBox="0 0 427.94 427.94"><defs><style>.cls-1{fill:url(#linear-gradient);}</style><linearGradient id="linear-gradient" x1="41.58" y1="256" x2="470.12" y2="256" gradientUnits="userSpaceOnUse"><stop offset="0" stop-color="#f441a5"/><stop offset="1" stop-color="#03a9f4"/></linearGradient></defs><path class="cls-1" d="M256.13,42c-118.18,0-214,95.8-214,214s95.79,214,214,214,214-95.8,214-214S374.3,42,256.13,42ZM159.41,230.2a24.32,24.32,0,0,0-1.22-8.57,16.33,16.33,0,0,0-3.37-6.43,12.49,12.49,0,0,0-6.43-4.59,29.25,29.25,0,0,0-9.49-1.53,20.62,20.62,0,0,0-8.57,1.83,20,20,0,0,0-6.42,4.9,28.62,28.62,0,0,0-4.29,7.35,21.75,21.75,0,0,0-1.53,8.87v90.29h-23V231.73a37.79,37.79,0,0,1,3.68-16.84A40.78,40.78,0,0,1,108,201.73c3.67-3.67,8.57-6.43,14.08-8.57a45,45,0,0,1,17.14-3.06A63.76,63.76,0,0,1,157,192.55a34.51,34.51,0,0,1,13.47,7.65,31.88,31.88,0,0,1,9.18,12.55A44.35,44.35,0,0,1,183,230.2Zm142.93-20.82h-40.4V320.79H238.68V209.38H198.89V190.1H302.34Zm86.93,111.11-33.67-55.1L341.83,281v39.49H318.26V190.1h23.57v60.6l11.93-15.91,33.06-44.69h28.46L370.9,247.64l46.22,72.85Z" transform="translate(-42.16 -42.03)"/></svg>