<?xml version="1.0" encoding="utf-8"?>
<!-- Generator: Adobe Illustrator 24.3.0, SVG Export Plug-In . SVG Version: 6.00 Build 0)  -->
<svg version="1.1" id="Layer_1" xmlns="http://www.w3.org/2000/svg" xmlns:xlink="http://www.w3.org/1999/xlink" x="0px" y="0px"
	 viewBox="0 0 459.8 43.8" style="enable-background:new 0 0 459.8 43.8;" xml:space="preserve">
<style type="text/css">
	.st0{fill:url(#SVGID_1_);}
	.st1{fill:url(#SVGID_2_);}
	.st2{fill:url(#SVGID_3_);}
	.st3{fill:#FFFFFF;}
</style>
<g>
	
		<linearGradient id="SVGID_1_" gradientUnits="userSpaceOnUse" x1="-3.849888e-02" y1="23.9" x2="28.7017" y2="23.9" gradientTransform="matrix(1 0 0 -1 0 45.8)">
		<stop  offset="0" style="stop-color:#F441A5"/>
		<stop  offset="1" style="stop-color:#03A9F4"/>
	</linearGradient>
	<path class="st0" d="M28.7,0.3v29.6c0,2-0.4,3.9-1.2,5.5c-0.7,1.7-1.8,3.1-3,4.3s-2.8,2.1-4.6,2.8c-1.7,0.7-3.6,1-5.6,1
		c-2.1,0-4.1-0.3-5.8-0.8s-3.2-1.4-4.4-2.5c-1.3-1.1-2.3-2.4-3-4.1S0,32.6,0,30.4h7.7c0,1.1,0.1,2,0.4,2.8c0.2,0.8,0.6,1.5,1.1,2.1
		c0.5,0.7,1.2,1.2,2.1,1.5s1.9,0.5,3.1,0.5c1,0,1.9-0.2,2.8-0.6c0.8-0.4,1.5-0.9,2.1-1.6s1-1.5,1.4-2.4s0.5-1.9,0.5-2.9V0.3H28.7z"
		/>
	
		<linearGradient id="SVGID_2_" gradientUnits="userSpaceOnUse" x1="33.9" y1="24.15" x2="67.7379" y2="24.15" gradientTransform="matrix(1 0 0 -1 0 45.8)">
		<stop  offset="0" style="stop-color:#F441A5"/>
		<stop  offset="1" style="stop-color:#03A9F4"/>
	</linearGradient>
	<path class="st1" d="M54.5,6.6V43h-7.6V6.6h-13V0.3h33.8v6.3H54.5z"/>
	
		<linearGradient id="SVGID_3_" gradientUnits="userSpaceOnUse" x1="72.8521" y1="24.2" x2="105.2545" y2="24.2" gradientTransform="matrix(1 0 0 -1 0 45.8)">
		<stop  offset="0" style="stop-color:#F441A5"/>
		<stop  offset="1" style="stop-color:#03A9F4"/>
	</linearGradient>
	<path class="st2" d="M80.6,30v12.9h-7.7V0.3h7.7v19.8l3.9-5.2L95.3,0.3h9.3L90.1,19.1l15.1,23.8h-9.1l-11-18L80.6,30z"/>
	<path class="st3" d="M132.5,40.3c-0.1-0.9-0.1-1.8-0.2-2.7c-0.7,0.9-1.4,1.8-2.3,2.5c-0.9,0.7-1.8,1.4-2.9,1.8
		c-1,0.5-2.1,0.9-3.3,1.1c-1.2,0.3-2.4,0.4-3.6,0.4c-1.4,0-2.7-0.2-3.9-0.6s-2.3-1-3.3-1.7c-0.9-0.8-1.7-1.7-2.2-2.8
		S110,36,110,34.6c0-1.9,0.4-3.4,1.3-4.7c0.9-1.2,2-2.3,3.4-3c1.4-0.8,3-1.3,4.8-1.6s3.6-0.5,5.5-0.5h7.4v-4.1
		c0-1.3-0.3-2.5-0.8-3.4s-1.2-1.8-2-2.5c-0.9-0.6-1.9-1.1-3-1.5c-1.1-0.3-2.3-0.5-3.6-0.5c-1.1,0-2.3,0.2-3.4,0.5
		c-1.1,0.3-2.1,0.7-3,1.3c-0.9,0.6-1.6,1.3-2.2,2.2s-0.9,1.9-0.9,3H111c0.1-1.4,0.4-2.7,1.2-3.9c0.7-1.1,1.6-2.1,2.8-2.9
		c1.1-0.8,2.4-1.4,3.8-1.8c1.4-0.4,2.9-0.6,4.5-0.6s3.1,0.2,4.6,0.6c1.4,0.4,2.7,1.1,3.8,1.9c1.1,0.9,1.9,1.9,2.5,3.2
		c0.6,1.3,1,2.8,1,4.4v15.6c0,1.1,0.1,2.1,0.3,3.1c0.2,1,0.4,2,0.6,3.1v0.3h-2.8C132.8,42.1,132.6,41.2,132.5,40.3z M124.3,40.8
		c1.2-0.3,2.3-0.8,3.4-1.4c1-0.6,1.9-1.3,2.7-2.2c0.8-0.9,1.5-1.8,2-2.9v-7.2h-7.1c-1.7,0-3.3,0.2-5,0.4c-1.7,0.3-3.1,0.8-4.3,1.5
		c-1.1,0.6-1.9,1.3-2.5,2.3c-0.6,0.9-0.9,2.1-0.9,3.4c0,1,0.2,2,0.7,2.8c0.4,0.8,1,1.5,1.8,2.1c0.7,0.6,1.6,1,2.5,1.3
		c1,0.3,1.9,0.4,3,0.4C121.8,41.2,123.1,41.1,124.3,40.8z"/>
	<path class="st3" d="M146.8,11.3h2.4l0.1,6.9c0.5-1.1,1.1-2,1.8-2.9c0.7-0.9,1.5-1.7,2.5-2.3c1-0.7,2.1-1.3,3.2-1.7
		c1.2-0.4,2.4-0.6,3.8-0.6c1.8,0,3.3,0.3,4.7,0.8c1.3,0.6,2.4,1.3,3.3,2.4c0.9,1.1,1.6,2.3,2,3.8s0.7,3.1,0.7,4.9V43h-2.6V22.6
		c0-1.5-0.2-2.8-0.5-4c-0.3-1.2-0.9-2.2-1.5-3c-0.7-0.8-1.6-1.5-2.7-1.9c-1.1-0.4-2.4-0.7-3.8-0.6c-1.3,0-2.6,0.3-3.7,0.7
		c-1.2,0.5-2.3,1.1-3.2,1.9s-1.7,1.7-2.4,2.8c-0.7,1.1-1.2,2.2-1.5,3.4V43h-2.5V11.3H146.8z"/>
	<path class="st3" d="M197.5,11.3v29.3h11V43h-25v-2.4h11.4v-27h-11.4v-2.4h14V11.3z M193.9,1.5c0.1-0.3,0.2-0.6,0.4-0.8
		c0.2-0.2,0.4-0.4,0.7-0.5c0.3-0.1,0.7-0.2,1.1-0.2c0.4,0,0.8,0.1,1.1,0.2c0.3,0.1,0.5,0.3,0.7,0.5c0.2,0.2,0.3,0.5,0.4,0.8
		c0.1,0.3,0.1,0.6,0.1,1c0,0.6-0.2,1.1-0.6,1.6c-0.4,0.5-1,0.7-1.8,0.7c-0.9,0-1.5-0.2-1.8-0.7c-0.3-0.5-0.5-1-0.5-1.6
		C193.8,2.1,193.8,1.8,193.9,1.5z"/>
	<path class="st3" d="M217.8,15.1c0.6-1.3,1.5-2.4,2.7-3.2c1.2-0.8,2.7-1.2,4.6-1.3c1,0,1.9,0.1,2.6,0.4c0.8,0.2,1.4,0.6,1.9,1
		s0.9,0.9,1.2,1.4c0.3,0.5,0.6,1.1,0.8,1.7c0.3-0.6,0.7-1.1,1.1-1.7c0.5-0.5,1-1,1.6-1.4s1.3-0.8,2.1-1c0.8-0.3,1.7-0.4,2.6-0.4
		c1.5,0,2.7,0.3,3.6,0.8s1.7,1.2,2.2,2.1c0.5,0.8,0.9,1.8,1.1,2.8s0.3,2.1,0.3,3.1v23.5h-2.4V19.4c0-0.7-0.1-1.4-0.2-2.2
		s-0.4-1.5-0.7-2.2c-0.4-0.6-0.9-1.1-1.6-1.6c-0.7-0.4-1.6-0.6-2.7-0.6c-1.1,0-2.1,0.2-2.8,0.5c-0.8,0.3-1.4,0.8-1.9,1.3
		s-0.9,1.1-1.2,1.8c-0.3,0.7-0.5,1.3-0.7,1.9c0,0.1,0,0.2,0,0.3s0,0.2,0,0.2l-0.1,24h-2.3l-0.1-24c0-0.7-0.1-1.4-0.2-2.1
		c-0.1-0.7-0.4-1.4-0.7-2c-0.4-0.6-0.9-1-1.6-1.4s-1.6-0.5-2.7-0.5c-1.2,0-2.2,0.2-2.9,0.6c-0.8,0.4-1.4,0.9-1.9,1.5
		s-0.8,1.3-1.1,2.1c-0.3,0.8-0.5,1.5-0.7,2.2v23.6h-2.3V11.3h2.3L217.8,15.1z"/>
	<path class="st3" d="M276.6,40.3c-0.1-0.9-0.1-1.8-0.2-2.7c-0.7,0.9-1.4,1.8-2.3,2.5s-1.8,1.4-2.9,1.8s-2.1,0.9-3.3,1.1
		s-2.4,0.4-3.6,0.4c-1.4,0-2.7-0.2-3.9-0.6s-2.3-1-3.3-1.7c-0.9-0.8-1.7-1.7-2.2-2.8s-0.8-2.3-0.8-3.7c0-1.9,0.4-3.4,1.3-4.7
		s2-2.3,3.4-3c1.4-0.8,3-1.3,4.8-1.6s3.6-0.5,5.5-0.5h7.4v-4.1c0-1.3-0.3-2.5-0.8-3.4s-1.2-1.8-2-2.5c-0.9-0.6-1.9-1.1-3-1.5
		s-2.3-0.5-3.6-0.5c-1.1,0-2.3,0.2-3.4,0.5s-2.1,0.7-3,1.3c-0.9,0.6-1.6,1.3-2.2,2.2s-0.9,1.9-0.9,3h-2.5c0.1-1.4,0.4-2.7,1.2-3.9
		s1.6-2.1,2.8-2.9c1.1-0.8,2.4-1.4,3.8-1.8s2.9-0.6,4.5-0.6s3.1,0.2,4.6,0.6c1.4,0.4,2.7,1.1,3.8,1.9c1.1,0.9,1.9,1.9,2.5,3.2
		c0.6,1.3,1,2.8,1,4.4v15.6c0,1.1,0.1,2.1,0.3,3.1s0.4,2,0.6,3.1v0.3h-2.8C276.8,42.1,276.7,41.2,276.6,40.3z M268.3,40.8
		c1.2-0.3,2.3-0.8,3.4-1.4c1-0.6,1.9-1.3,2.7-2.2s1.5-1.8,2-2.9v-7.2h-7.1c-1.7,0-3.3,0.2-5,0.4s-3.1,0.8-4.3,1.5
		c-1.1,0.6-1.9,1.3-2.5,2.3s-0.9,2.1-0.9,3.4c0,1,0.2,2,0.7,2.8s1,1.5,1.8,2.1c0.7,0.6,1.6,1,2.5,1.3s1.9,0.4,3,0.4
		C265.8,41.2,267.1,41.1,268.3,40.8z"/>
	<path class="st3" d="M301.9,11.3h11.6v2.3h-11.6v21.2c0,1.2,0.2,2.3,0.6,3.1s0.9,1.5,1.6,2s1.4,0.9,2.3,1.1s1.9,0.3,2.9,0.3
		c0.5,0,1.1,0,1.6,0s1.1-0.1,1.6-0.1c0.3,0,0.7-0.1,1-0.1s0.6-0.1,0.9-0.1l0.4,2.1c-0.3,0.1-0.6,0.2-1,0.3s-0.7,0.1-1.2,0.2
		c-0.6,0.1-1.2,0.1-1.8,0.2s-1.2,0-1.8,0c-1.4,0-2.7-0.2-3.9-0.5s-2.2-0.8-3.1-1.5s-1.6-1.6-2.1-2.7s-0.8-2.5-0.8-4.1V13.5H290v-2.3
		h9.1V2.9h2.6L301.9,11.3z"/>
	<path class="st3" d="M341.6,11.3v29.3h11V43h-25v-2.4H339v-27h-11.4v-2.4h14V11.3z M337.9,1.5c0.1-0.3,0.2-0.6,0.4-0.8
		c0.2-0.2,0.4-0.4,0.7-0.5c0.3-0.1,0.7-0.2,1.1-0.2s0.8,0.1,1.1,0.2c0.3,0.1,0.5,0.3,0.7,0.5s0.3,0.5,0.4,0.8s0.1,0.6,0.1,1
		c0,0.6-0.2,1.1-0.6,1.6s-1,0.7-1.8,0.7s-1.5-0.2-1.8-0.7s-0.5-1-0.5-1.6C337.8,2.1,337.9,1.8,337.9,1.5z"/>
	<path class="st3" d="M361.8,20.5c0.6-1.9,1.5-3.6,2.7-5.1s2.7-2.6,4.4-3.5c1.7-0.9,3.7-1.3,5.9-1.3s4.2,0.4,5.9,1.3
		c1.7,0.9,3.2,2,4.4,3.5c1.2,1.5,2.1,3.2,2.7,5.1s1,3.9,1,6v1.1c0,2.1-0.3,4.1-1,6s-1.5,3.6-2.7,5.1s-2.7,2.6-4.4,3.5
		s-3.7,1.3-5.9,1.3c-2.2,0-4.2-0.4-5.9-1.3s-3.2-2-4.4-3.5c-1.2-1.5-2.1-3.2-2.8-5.1s-1-3.9-1-6v-1.1
		C360.9,24.5,361.2,22.5,361.8,20.5z M364.2,32.7c0.5,1.6,1.2,3.1,2.2,4.4s2.2,2.3,3.6,3s3.1,1.1,4.9,1.1s3.5-0.4,4.9-1.1
		s2.6-1.8,3.6-3.1c1-1.3,1.7-2.7,2.2-4.3s0.8-3.3,0.8-5v-1.1c0-1.7-0.3-3.4-0.8-5s-1.2-3.1-2.2-4.4c-1-1.2-2.2-2.3-3.6-3
		c-1.4-0.8-3-1.2-4.9-1.2c-1.8,0-3.5,0.4-4.9,1.2c-1.4,0.8-2.6,1.8-3.6,3c-1,1.3-1.7,2.7-2.2,4.4s-0.8,3.3-0.8,5v1.1
		C363.4,29.4,363.7,31.1,364.2,32.7z"/>
	<path class="st3" d="M398.8,11.3h2.4l0.1,6.9c0.5-1.1,1.1-2,1.8-2.9s1.5-1.7,2.5-2.3c1-0.7,2.1-1.3,3.2-1.7
		c1.2-0.4,2.4-0.6,3.8-0.6c1.8,0,3.3,0.3,4.7,0.8s2.4,1.3,3.3,2.4s1.6,2.3,2,3.8s0.7,3.1,0.7,4.9V43h-2.6V22.6c0-1.5-0.2-2.8-0.5-4
		s-0.9-2.2-1.5-3c-0.7-0.8-1.6-1.5-2.7-1.9s-2.4-0.7-3.8-0.6c-1.3,0-2.6,0.3-3.7,0.7c-1.2,0.5-2.3,1.1-3.2,1.9
		c-0.9,0.8-1.7,1.7-2.4,2.8s-1.2,2.2-1.5,3.4V43h-2.5L398.8,11.3L398.8,11.3z"/>
	<path class="st3" d="M456.7,32.3c-0.5-0.8-1.2-1.4-2.1-1.9c-1-0.6-2.1-1.1-3.4-1.5s-2.5-0.7-3.7-1c-1.5-0.3-2.9-0.7-4.2-1
		s-2.5-0.9-3.8-1.6c-1.1-0.6-2-1.4-2.7-2.4s-1.1-2.3-1.1-3.8c0-1.4,0.4-2.6,1.1-3.7s1.7-1.9,2.8-2.6c1.1-0.6,2.3-1.1,3.7-1.5
		c1.4-0.3,2.8-0.5,4.1-0.5c1.6,0,3.1,0.2,4.6,0.6s2.8,0.9,3.9,1.7c1.1,0.8,2,1.7,2.7,2.9s1.1,2.5,1.2,4.1h-2.6c0-1.2-0.4-2.2-1-3.1
		s-1.4-1.6-2.3-2.2c-1-0.6-2-1-3.2-1.3s-2.3-0.4-3.4-0.4c-1,0-2.1,0.1-3.1,0.3c-1.1,0.2-2.1,0.6-3,1s-1.6,1.1-2.2,1.8
		c-0.6,0.8-0.9,1.7-0.9,2.7c0,1.1,0.3,2,0.8,2.7s1.2,1.4,2.2,1.9s2.1,1,3.3,1.3s2.4,0.6,3.6,0.8c1.4,0.3,2.8,0.7,4.3,1.1
		s2.7,1,3.8,1.7s2,1.6,2.7,2.6s1,2.3,1,3.8c0,1.3-0.3,2.5-0.9,3.6s-1.4,1.9-2.3,2.5c-1.2,0.9-2.7,1.5-4.3,1.9s-3.2,0.6-4.7,0.6
		c-1.6,0-3.2-0.2-4.8-0.6s-2.9-1-4.1-1.7s-2.2-1.7-2.9-2.8s-1.2-2.5-1.2-4h2.5c0.1,1.3,0.6,2.4,1.2,3.3s1.5,1.6,2.6,2.1
		c1,0.5,2.1,0.9,3.2,1.1s2.3,0.3,3.5,0.3c1.4,0,2.7-0.2,4-0.5s2.5-0.9,3.5-1.6c0.7-0.5,1.2-1.1,1.6-1.8s0.6-1.5,0.6-2.3
		C457.5,34,457.2,33,456.7,32.3z"/>
</g>
</svg>
