<svg id="Layer_1" data-name="Layer 1" xmlns="http://www.w3.org/2000/svg" xmlns:xlink="http://www.w3.org/1999/xlink" viewBox="0 0 427.94 427.94"><defs><style>.cls-1{fill:url(#linear-gradient);}</style><linearGradient id="linear-gradient" x1="41.58" y1="256" x2="470.12" y2="256" gradientUnits="userSpaceOnUse"><stop offset="0" stop-color="#f441a5"/><stop offset="1" stop-color="#03a9f4"/></linearGradient></defs><path class="cls-1" d="M256.13,42c-118.18,0-214,95.8-214,214s95.79,214,214,214,214-95.8,214-214S374.3,42,256.13,42Zm-80.7,241.2a41.57,41.57,0,0,1-4.06,18.57,44.68,44.68,0,0,1-10.13,14.52c-4.05,4.05-9.45,7.09-15.53,9.45a49.4,49.4,0,0,1-18.91,3.38,70.29,70.29,0,0,1-19.58-2.7A38,38,0,0,1,92.36,318a35.19,35.19,0,0,1-10.13-13.85,49,49,0,0,1-3.71-19.25h26a26.48,26.48,0,0,0,1.35,9.46,17.8,17.8,0,0,0,3.71,7.09,13.77,13.77,0,0,0,7.09,5.06,32.21,32.21,0,0,0,10.47,1.69,22.6,22.6,0,0,0,9.45-2,21.94,21.94,0,0,0,7.1-5.41,32,32,0,0,0,4.72-8.1,24,24,0,0,0,1.69-9.79V183.28h25.33Zm131.68-78.68H262.54V327.46H236.88V204.55H193V183.28H307.11ZM403,327.12l-37.14-60.78-15.2,17.22v43.56h-26V183.28h26v66.85l13.17-17.55,36.47-49.3h31.4l-49,63.48,51,80.36Z" transform="translate(-42.16 -42.03)"/></svg>